<svg width="177" height="40" viewBox="0 0 177 40" fill="none" xmlns="http://www.w3.org/2000/svg">
<path fill-rule="evenodd" clip-rule="evenodd" d="M20.6841 40C31.7298 40 40.6841 31.0457 40.6841 20C40.6841 8.95431 31.7298 0 20.6841 0C9.63837 0 0.684082 8.95431 0.684082 20C0.684082 31.0457 9.63837 40 20.6841 40ZM26.9234 9.31684C27.2271 8.23805 26.1802 7.60013 25.2241 8.2813L11.8772 17.7896C10.8403 18.5283 11.0034 20 12.1222 20H15.6368V19.9728H22.4866L16.9053 21.9421L14.4448 30.6832C14.1411 31.762 15.1879 32.3999 16.1441 31.7187L29.491 22.2105C30.5279 21.4718 30.3647 20 29.246 20H23.9162L26.9234 9.31684Z" fill="#434757"/>
<path d="M63.44 27.14C61.8 27.14 60.4533 26.7533 59.4 25.98C58.3467 25.1933 57.78 24.0733 57.7 22.62H61.88C61.92 23.1133 62.0667 23.4733 62.32 23.7C62.5733 23.9267 62.9 24.04 63.3 24.04C63.66 24.04 63.9533 23.9533 64.18 23.78C64.42 23.5933 64.54 23.34 64.54 23.02C64.54 22.6067 64.3467 22.2867 63.96 22.06C63.5733 21.8333 62.9467 21.58 62.08 21.3C61.16 20.9933 60.4133 20.7 59.84 20.42C59.28 20.1267 58.7867 19.7067 58.36 19.16C57.9467 18.6 57.74 17.8733 57.74 16.98C57.74 16.0733 57.9667 15.3 58.42 14.66C58.8733 14.0067 59.5 13.5133 60.3 13.18C61.1 12.8467 62.0067 12.68 63.02 12.68C64.66 12.68 65.9667 13.0667 66.94 13.84C67.9267 14.6 68.4533 15.6733 68.52 17.06H64.26C64.2467 16.6333 64.1133 16.3133 63.86 16.1C63.62 15.8867 63.3067 15.78 62.92 15.78C62.6267 15.78 62.3867 15.8667 62.2 16.04C62.0133 16.2133 61.92 16.46 61.92 16.78C61.92 17.0467 62.02 17.28 62.22 17.48C62.4333 17.6667 62.6933 17.8333 63 17.98C63.3067 18.1133 63.76 18.2867 64.36 18.5C65.2533 18.8067 65.9867 19.1133 66.56 19.42C67.1467 19.7133 67.6467 20.1333 68.06 20.68C68.4867 21.2133 68.7 21.8933 68.7 22.72C68.7 23.56 68.4867 24.3133 68.06 24.98C67.6467 25.6467 67.04 26.1733 66.24 26.56C65.4533 26.9467 64.52 27.14 63.44 27.14ZM81.2423 21.26C81.2423 21.5667 81.2223 21.8733 81.1823 22.18H73.7623C73.8023 22.7933 73.969 23.2533 74.2623 23.56C74.569 23.8533 74.9557 24 75.4223 24C76.0757 24 76.5423 23.7067 76.8223 23.12H81.0023C80.829 23.8933 80.489 24.5867 79.9823 25.2C79.489 25.8 78.8623 26.2733 78.1023 26.62C77.3423 26.9667 76.5023 27.14 75.5823 27.14C74.4757 27.14 73.489 26.9067 72.6223 26.44C71.769 25.9733 71.0957 25.3067 70.6023 24.44C70.1223 23.5733 69.8823 22.5533 69.8823 21.38C69.8823 20.2067 70.1223 19.1933 70.6023 18.34C71.0823 17.4733 71.749 16.8067 72.6023 16.34C73.469 15.8733 74.4623 15.64 75.5823 15.64C76.689 15.64 77.669 15.8667 78.5223 16.32C79.3757 16.7733 80.0423 17.4267 80.5223 18.28C81.0023 19.12 81.2423 20.1133 81.2423 21.26ZM77.2423 20.28C77.2423 19.8 77.0823 19.4267 76.7623 19.16C76.4423 18.88 76.0423 18.74 75.5623 18.74C75.0823 18.74 74.689 18.8733 74.3823 19.14C74.0757 19.3933 73.8757 19.7733 73.7823 20.28H77.2423ZM86.7666 12.2V27H82.8466V12.2H86.7666ZM95.0589 19.04H93.2989V27H89.3589V19.04H88.1389V15.78H89.3589V15.68C89.3589 14.24 89.7789 13.14 90.6189 12.38C91.4722 11.6067 92.6922 11.22 94.2789 11.22C94.5989 11.22 94.8456 11.2267 95.0189 11.24V14.58C94.9122 14.5667 94.7656 14.56 94.5789 14.56C94.1522 14.56 93.8389 14.66 93.6389 14.86C93.4389 15.0467 93.3256 15.3533 93.2989 15.78H95.0589V19.04ZM105.608 27.14C103.968 27.14 102.621 26.7533 101.568 25.98C100.515 25.1933 99.948 24.0733 99.868 22.62H104.048C104.088 23.1133 104.235 23.4733 104.488 23.7C104.741 23.9267 105.068 24.04 105.468 24.04C105.828 24.04 106.121 23.9533 106.348 23.78C106.588 23.5933 106.708 23.34 106.708 23.02C106.708 22.6067 106.515 22.2867 106.128 22.06C105.741 21.8333 105.115 21.58 104.248 21.3C103.328 20.9933 102.581 20.7 102.008 20.42C101.448 20.1267 100.955 19.7067 100.528 19.16C100.115 18.6 99.908 17.8733 99.908 16.98C99.908 16.0733 100.135 15.3 100.588 14.66C101.041 14.0067 101.668 13.5133 102.468 13.18C103.268 12.8467 104.175 12.68 105.188 12.68C106.828 12.68 108.135 13.0667 109.108 13.84C110.095 14.6 110.621 15.6733 110.688 17.06H106.428C106.415 16.6333 106.281 16.3133 106.028 16.1C105.788 15.8867 105.475 15.78 105.088 15.78C104.795 15.78 104.555 15.8667 104.368 16.04C104.181 16.2133 104.088 16.46 104.088 16.78C104.088 17.0467 104.188 17.28 104.388 17.48C104.601 17.6667 104.861 17.8333 105.168 17.98C105.475 18.1133 105.928 18.2867 106.528 18.5C107.421 18.8067 108.155 19.1133 108.728 19.42C109.315 19.7133 109.815 20.1333 110.228 20.68C110.655 21.2133 110.868 21.8933 110.868 22.72C110.868 23.56 110.655 24.3133 110.228 24.98C109.815 25.6467 109.208 26.1733 108.408 26.56C107.621 26.9467 106.688 27.14 105.608 27.14ZM123.41 21.26C123.41 21.5667 123.39 21.8733 123.35 22.18H115.93C115.97 22.7933 116.137 23.2533 116.43 23.56C116.737 23.8533 117.124 24 117.59 24C118.244 24 118.71 23.7067 118.99 23.12H123.17C122.997 23.8933 122.657 24.5867 122.15 25.2C121.657 25.8 121.03 26.2733 120.27 26.62C119.51 26.9667 118.67 27.14 117.75 27.14C116.644 27.14 115.657 26.9067 114.79 26.44C113.937 25.9733 113.264 25.3067 112.77 24.44C112.29 23.5733 112.05 22.5533 112.05 21.38C112.05 20.2067 112.29 19.1933 112.77 18.34C113.25 17.4733 113.917 16.8067 114.77 16.34C115.637 15.8733 116.63 15.64 117.75 15.64C118.857 15.64 119.837 15.8667 120.69 16.32C121.544 16.7733 122.21 17.4267 122.69 18.28C123.17 19.12 123.41 20.1133 123.41 21.26ZM119.41 20.28C119.41 19.8 119.25 19.4267 118.93 19.16C118.61 18.88 118.21 18.74 117.73 18.74C117.25 18.74 116.857 18.8733 116.55 19.14C116.244 19.3933 116.044 19.7733 115.95 20.28H119.41ZM128.935 17.76C129.375 17.12 129.908 16.6133 130.535 16.24C131.161 15.8667 131.835 15.68 132.555 15.68V19.86H131.455C130.601 19.86 129.968 20.0267 129.555 20.36C129.141 20.6933 128.935 21.2733 128.935 22.1V27H125.015V15.78H128.935V17.76ZM139.34 23.3L141.44 15.78H145.62L141.76 27H136.88L133.02 15.78H137.2L139.34 23.3ZM148.928 14.74C148.235 14.74 147.675 14.5533 147.248 14.18C146.835 13.7933 146.628 13.3133 146.628 12.74C146.628 12.1533 146.835 11.6667 147.248 11.28C147.675 10.8933 148.235 10.7 148.928 10.7C149.608 10.7 150.155 10.8933 150.568 11.28C150.995 11.6667 151.208 12.1533 151.208 12.74C151.208 13.3133 150.995 13.7933 150.568 14.18C150.155 14.5533 149.608 14.74 148.928 14.74ZM150.868 15.78V27H146.948V15.78H150.868ZM152.46 21.38C152.46 20.22 152.7 19.2067 153.18 18.34C153.66 17.4733 154.327 16.8067 155.18 16.34C156.047 15.8733 157.034 15.64 158.14 15.64C159.567 15.64 160.767 16.0333 161.74 16.82C162.714 17.5933 163.34 18.68 163.62 20.08H159.46C159.22 19.3467 158.754 18.98 158.06 18.98C157.567 18.98 157.174 19.1867 156.88 19.6C156.6 20 156.46 20.5933 156.46 21.38C156.46 22.1667 156.6 22.7667 156.88 23.18C157.174 23.5933 157.567 23.8 158.06 23.8C158.767 23.8 159.234 23.4333 159.46 22.7H163.62C163.34 24.0867 162.714 25.1733 161.74 25.96C160.767 26.7467 159.567 27.14 158.14 27.14C157.034 27.14 156.047 26.9067 155.18 26.44C154.327 25.9733 153.66 25.3067 153.18 24.44C152.7 23.5733 152.46 22.5533 152.46 21.38ZM175.969 21.26C175.969 21.5667 175.949 21.8733 175.909 22.18H168.489C168.529 22.7933 168.696 23.2533 168.989 23.56C169.296 23.8533 169.682 24 170.149 24C170.802 24 171.269 23.7067 171.549 23.12H175.729C175.556 23.8933 175.216 24.5867 174.709 25.2C174.216 25.8 173.589 26.2733 172.829 26.62C172.069 26.9667 171.229 27.14 170.309 27.14C169.202 27.14 168.216 26.9067 167.349 26.44C166.496 25.9733 165.822 25.3067 165.329 24.44C164.849 23.5733 164.609 22.5533 164.609 21.38C164.609 20.2067 164.849 19.1933 165.329 18.34C165.809 17.4733 166.476 16.8067 167.329 16.34C168.196 15.8733 169.189 15.64 170.309 15.64C171.416 15.64 172.396 15.8667 173.249 16.32C174.102 16.7733 174.769 17.4267 175.249 18.28C175.729 19.12 175.969 20.1133 175.969 21.26ZM171.969 20.28C171.969 19.8 171.809 19.4267 171.489 19.16C171.169 18.88 170.769 18.74 170.289 18.74C169.809 18.74 169.416 18.8733 169.109 19.14C168.802 19.3933 168.602 19.7733 168.509 20.28H171.969Z" fill="#121F3E"/>
</svg>
